<svg width="512" height="512" viewBox="0 0 512 512" fill="none" xmlns="http://www.w3.org/2000/svg">
<path d="M430.328 437.458C361.991 493.243 148.613 493.243 81.6708 437.458C13.3341 381.673 20.3071 143.192 81.6708 80.4336C143.035 17.6755 368.964 17.6755 430.328 80.4336C491.691 143.192 498.664 381.674 430.328 437.458Z" fill="#C4E2FF"/>
<path d="M257.393 339.835C196.03 388.647 127.693 413.75 63.5405 415.144C16.1228 334.256 25.8856 137.614 81.6707 80.4346C131.877 28.8337 289.47 19.0709 380.121 51.1471C402.434 143.193 356.412 260.341 257.393 339.835Z" fill="#D8ECFE"/>
<path d="M347.504 250.718C347.504 257.051 341.963 262.591 335.631 262.591H288.141L322.176 296.626C326.925 301.375 326.925 309.291 322.176 314.04C317.427 318.788 310.303 318.788 304.763 314.04L270.727 280.004V327.495C270.727 334.618 265.186 339.367 258.855 339.367C251.731 339.367 246.982 333.827 246.982 327.495V280.004L212.947 314.04C208.198 318.788 200.282 318.788 195.533 314.04C190.785 309.291 190.785 301.375 195.533 296.626L229.569 262.591H182.078C174.954 262.591 170.205 257.05 170.205 250.718C170.205 243.595 175.746 238.846 182.078 238.846H229.568L195.533 205.602C190.784 200.854 190.784 192.938 195.533 188.189C200.282 183.44 208.197 183.44 212.946 188.189L246.982 222.224V174.733C246.982 167.609 252.522 162.86 258.854 162.86C265.186 162.86 270.727 168.401 270.727 174.733V222.223L304.762 188.188C309.511 183.439 317.426 183.439 322.175 188.188C326.924 192.937 326.924 200.852 322.175 205.601L288.14 238.845H335.631C342.755 238.845 347.504 244.386 347.504 250.718Z" fill="#FF9F00"/>
<path d="M378.697 362.069C380.849 364.218 383.671 365.295 386.488 365.295C389.306 365.295 392.126 364.218 394.28 362.063C452.295 304.049 452.295 209.656 394.28 151.643C389.976 147.337 383.001 147.337 378.697 151.643C374.393 155.945 374.393 162.925 378.697 167.227C428.116 216.648 428.116 297.055 378.697 346.478C374.393 350.781 374.393 357.76 378.697 362.069Z" fill="#E3394B"/>
<path d="M133.306 151.643C129 147.337 122.027 147.337 117.721 151.643C59.7076 209.656 59.7076 304.051 117.721 362.063C119.875 364.218 122.695 365.295 125.513 365.295C128.332 365.295 131.152 364.218 133.306 362.067C137.611 357.763 137.611 350.785 133.306 346.478C83.8884 297.056 83.8884 216.648 133.306 167.227C137.61 162.926 137.61 155.948 133.306 151.643Z" fill="#F9596A"/>
<path d="M189.817 390.072C200.648 390.072 209.429 381.291 209.429 370.46C209.429 359.629 200.648 350.848 189.817 350.848C178.986 350.848 170.205 359.629 170.205 370.46C170.205 381.291 178.986 390.072 189.817 390.072Z" fill="#FF7816"/>
</svg>
